<?xml version="1.0" standalone="no"?><!DOCTYPE svg PUBLIC "-//W3C//DTD SVG 1.1//EN" "http://www.w3.org/Graphics/SVG/1.1/DTD/svg11.dtd"><svg t="1724232824187" class="icon" viewBox="0 0 1024 1024" version="1.1" xmlns="http://www.w3.org/2000/svg" p-id="12800" xmlns:xlink="http://www.w3.org/1999/xlink" width="32" height="32"><path d="M746.7008 273.2032a130.3552 130.3552 0 0 0 39.424-71.68 100.864 100.864 0 0 0-27.0336-81.92 85.4016 85.4016 0 0 0-60.1088-30.208C665.6 87.04 632.9344 102.4 610.4064 117.1456 595.1488 86.3232 565.0432 46.08 512 46.08c-48.64 0-76.5952 34.9184-90.5216 68.608-38.912-22.6304-95.232-34.6112-144.384 13.9264A97.0752 97.0752 0 0 0 245.76 204.8a123.392 123.392 0 0 0 30.72 69.8368 387.7888 387.7888 0 0 0-158.72 312.5248 394.24 394.24 0 0 0 788.48 0 386.56 386.56 0 0 0-159.5392-313.9584zM512 926.72a341.7088 341.7088 0 0 1-343.04-339.5584 337.3056 337.3056 0 0 1 160.0512-287.232 25.7024 25.7024 0 0 0 2.2528-41.7792c-9.216-7.3728-33.5872-31.9488-34.9184-56.6272a47.104 47.104 0 0 1 16.7936-36.4544 58.4704 58.4704 0 0 1 42.1888-18.5344c31.4368 0 58.6752 25.1904 62.7712 29.2864a25.7024 25.7024 0 0 0 43.4176-14.9504c0-0.6144 8.9088-63.5904 50.4832-63.5904 44.1344 0 61.44 65.9456 61.44 66.56a25.4976 25.4976 0 0 0 41.7792 12.9024c12.6976-10.8544 50.9952-38.5024 81.1008-36.4544a33.1776 33.1776 0 0 1 24.4736 12.5952 51.2 51.2 0 0 1 15.2576 40.96c-3.9936 27.3408-34.2016 52.224-45.4656 59.4944a25.3952 25.3952 0 0 0-11.776 21.8112A25.7024 25.7024 0 0 0 690.5856 296.96 336.5888 336.5888 0 0 1 855.04 587.1616 341.7088 341.7088 0 0 1 512 926.72z" fill="#333333" p-id="12801"></path><path d="M640 568.32a25.6 25.6 0 0 0 0-51.2H542.72l84.2752-84.2752a25.6 25.6 0 0 0-36.2496-36.2496L512 475.8528l-84.2752-84.3776a25.6 25.6 0 0 0-36.2496 36.2496L481.28 517.12h-97.28a25.6 25.6 0 0 0 0 51.2h102.4v40.96h-102.4a25.6 25.6 0 0 0 0 51.2h102.4V757.76a25.6 25.6 0 0 0 51.2 0v-97.28h102.4a25.6 25.6 0 0 0 0-51.2h-102.4v-40.96z" fill="#333333" p-id="12802"></path></svg>