<?xml version="1.0" standalone="no"?><!DOCTYPE svg PUBLIC "-//W3C//DTD SVG 1.1//EN" "http://www.w3.org/Graphics/SVG/1.1/DTD/svg11.dtd"><svg t="1724232452245" class="icon" viewBox="0 0 1024 1024" version="1.1" xmlns="http://www.w3.org/2000/svg" p-id="8993" xmlns:xlink="http://www.w3.org/1999/xlink" width="32" height="32"><path d="M566.857143 597.333333h-109.714286a18.285714 18.285714 0 0 1-18.285714-18.285714V475.428571h-103.619048c-5.046857 0-9.630476-2.048-12.921905-5.363809A18.224762 18.224762 0 0 1 316.952381 457.142857v-97.523809a18.285714 18.285714 0 0 1 18.285714-18.285715H438.857143v-103.619047a18.285714 18.285714 0 0 1 18.285714-18.285715h109.714286a18.285714 18.285714 0 0 1 18.285714 18.285715V341.333333h103.619048a18.285714 18.285714 0 0 1 18.285714 18.285715v97.523809a18.285714 18.285714 0 0 1-18.285714 18.285714H585.142857v103.619048a18.285714 18.285714 0 0 1-18.285714 18.285714zM548.571429 560.761905v-103.619048a18.285714 18.285714 0 0 1 18.285714-18.285714H670.47619v-60.952381h-103.619047a18.285714 18.285714 0 0 1-18.285714-18.285714V256h-73.142858v103.619048a18.285714 18.285714 0 0 1-18.285714 18.285714H353.52381v60.952381h103.619047a18.285714 18.285714 0 0 1 18.285714 18.285714V560.761905h73.142858z" fill="#555555" p-id="8994"></path><path d="M714.752 818.846476a91.843048 91.843048 0 0 0 28.135619 23.552c-58.904381 57.539048-130.048 112.518095-215.332571 166.607238-4.839619 3.072-10.556952 3.535238-15.555048 1.792-4.998095 1.755429-10.727619 1.28-15.555048-1.792C298.203429 883.260952 176.323048 752.761905 107.056762 596.163048 46.031238 458.25219 24.380952 303.591619 24.380952 67.132952A18.249143 18.249143 0 0 1 42.666667 48.761905h207.238095a18.285714 18.285714 0 0 1 0 36.571428H60.68419c1.097143 221.44 22.503619 367.104 79.445334 495.798857C205.81181 729.6 321.657905 854.150095 512 975.530667c80.213333-51.151238 147.175619-102.863238 202.752-156.684191z m114.712381-137.557333a702.744381 702.744381 0 0 0 54.406095-100.156953c58.477714-132.193524 79.494095-282.282667 79.494095-513.999238 0-10.142476 8.118857-18.371048 18.127239-18.371047C991.50019 48.761905 999.619048 56.990476 999.619048 67.132952c0 236.446476-21.650286 391.119238-82.67581 529.030096a739.791238 739.791238 0 0 1-59.318857 108.55619 91.843048 91.843048 0 0 0-28.16-23.430095zM981.333333 48.761905a18.285714 18.285714 0 0 1 0 36.571428h-207.238095a18.285714 18.285714 0 0 1 0-36.571428h207.238095z" fill="#555555" p-id="8995"></path><path d="M780.190476 877.714286c-67.328 0-121.904762-54.576762-121.904762-121.904762s54.576762-121.904762 121.904762-121.904762 121.904762 54.576762 121.904762 121.904762-54.576762 121.904762-121.904762 121.904762z m0-36.571429a85.333333 85.333333 0 1 0 0-170.666667 85.333333 85.333333 0 0 0 0 170.666667zM737.52381 134.095238a54.857143 54.857143 0 1 1 0-109.714286 54.857143 54.857143 0 0 1 0 109.714286z m0-36.571428a18.285714 18.285714 0 1 0 0-36.571429 18.285714 18.285714 0 0 0 0 36.571429zM286.47619 134.095238a54.857143 54.857143 0 1 1 0-109.714286 54.857143 54.857143 0 0 1 0 109.714286z m0-36.571428a18.285714 18.285714 0 1 0 0-36.571429 18.285714 18.285714 0 0 0 0 36.571429z" fill="#555555" p-id="8996"></path></svg>