<?xml version="1.0" standalone="no"?><!DOCTYPE svg PUBLIC "-//W3C//DTD SVG 1.1//EN" "http://www.w3.org/Graphics/SVG/1.1/DTD/svg11.dtd"><svg t="1724232490657" class="icon" viewBox="0 0 1024 1024" version="1.1" xmlns="http://www.w3.org/2000/svg" p-id="10013" xmlns:xlink="http://www.w3.org/1999/xlink" width="32" height="32"><path d="M655.4 923.3H206.6c-42.6 0-77.3-34.7-77.3-77.3V169.9c0-42.6 34.7-77.3 77.3-77.3h516c42.6 0 77.3 34.7 77.3 77.3v380c0 14.5-11.8 26.3-26.3 26.3s-26.3-11.8-26.3-26.3v-380c0-13.6-11-24.6-24.6-24.6h-516c-13.6 0-24.6 11-24.6 24.6V846c0 13.6 11 24.6 24.6 24.6h448.7" fill="#515151" p-id="10014"></path><path d="M315.8 234.9h297.6V342H315.8z" fill="#515151" p-id="10015"></path><path d="M613.4 208.6H315.8c-14.5 0-26.3 11.8-26.3 26.3V342c0 14.5 11.8 26.3 26.3 26.3h297.6c14.5 0 26.3-11.8 26.3-26.3V234.9c0.1-14.6-11.7-26.3-26.3-26.3z m-26.3 107.1h-245v-54.4H587v54.4h0.1z" fill="#515151" p-id="10016"></path><path d="M315.8 471.7h297.6v107.1H315.8z" fill="#515151" p-id="10017"></path><path d="M613.4 445.3H315.8c-14.5 0-26.3 11.8-26.3 26.3v107.1c0 14.5 11.8 26.3 26.3 26.3h297.6c14.5 0 26.3-11.8 26.3-26.3v-107c0.1-14.6-11.7-26.4-26.3-26.4z m-26.3 107.1h-245V498H587v54.4h0.1z" fill="#515151" p-id="10018"></path><path d="M486.2 786.6H315.8c-14.5 0-26.3-11.8-26.3-26.3 0-14.6 11.8-26.3 26.3-26.3h170.4c14.5 0 26.3 11.8 26.3 26.3s-11.8 26.3-26.3 26.3z" fill="#515151" p-id="10019"></path><path d="M655.1 896.9m-26.3 0a26.3 26.3 0 1 0 52.6 0 26.3 26.3 0 1 0-52.6 0Z" fill="#515151" p-id="10020"></path><path d="M778 605.1c-72.4 0-131.4 58.9-131.4 131.4 0 72.4 58.9 131.4 131.4 131.4 72.4 0 131.4-58.9 131.4-131.4-0.1-72.5-59-131.4-131.4-131.4z m0 229c-53.8 0-97.6-43.8-97.6-97.6s43.8-97.6 97.6-97.6 97.6 43.8 97.6 97.6-43.8 97.6-97.6 97.6z" fill="#515151" p-id="10021"></path><path d="M752.6 793.6c-6.6-6.5-6.7-17.2-0.2-23.9l69.4-70.5c6.5-6.6 17.2-6.7 23.9-0.2 6.6 6.5 6.7 17.2 0.2 23.9l-69.4 70.5c-6.6 6.7-17.3 6.8-23.9 0.2z" fill="#515151" p-id="10022"></path><path d="M750.2 791.3l-42.3-41.6c-6.6-6.5-6.7-17.2-0.2-23.9 6.5-6.6 17.2-6.7 23.9-0.2l42.3 41.6c6.6 6.5 6.7 17.2 0.2 23.9-6.6 6.7-17.2 6.7-23.9 0.2z" fill="#515151" p-id="10023"></path></svg>