<?xml version="1.0" standalone="no"?><!DOCTYPE svg PUBLIC "-//W3C//DTD SVG 1.1//EN"
        "http://www.w3.org/Graphics/SVG/1.1/DTD/svg11.dtd">
<svg t="1724226837694" class="icon" viewBox="0 0 1024 1024" version="1.1" xmlns="http://www.w3.org/2000/svg" p-id="3259"
     width="32" height="32" xmlns:xlink="http://www.w3.org/1999/xlink">
    <path d="M962 404.1c-3-8.9-10.7-15.4-20-16.8l-281.2-42.4L534.9 80.1c-4.1-8.7-12.9-14.3-22.6-14.3s-18.4 5.6-22.6 14.3L363.8 344.9 82.6 387.3c-9.3 1.4-17 7.9-20 16.8s-0.7 18.8 5.9 25.5l204 206.4-48.2 291.6c-1.6 9.4 2.4 18.9 10.2 24.5 7.8 5.5 18.1 6.1 26.4 1.6l251.3-137.1 251.3 137.1c3.7 2 7.9 3.1 12 3.1 5.1 0 10.2-1.6 14.5-4.6 7.8-5.5 11.7-15 10.2-24.5L752 635.9l204-206.4c6.7-6.6 9-16.5 6-25.4z"
          p-id="3260"></path>
</svg>
